<?xml version="1.0" encoding="utf-8"?>
<!-- Generator: Adobe Illustrator 27.8.1, SVG Export Plug-In . SVG Version: 6.00 Build 0)  -->
<svg version="1.1" id="Layer_2" xmlns="http://www.w3.org/2000/svg" xmlns:xlink="http://www.w3.org/1999/xlink" x="0px" y="0px"
	 viewBox="0 0 792 1224" style="enable-background:new 0 0 792 1224;" xml:space="preserve">
<style type="text/css">
	.st0{fill:none;stroke:#000000;stroke-width:11;stroke-miterlimit:10;}
</style>
<g>
	<path d="M421.18,334.63L101.21,580.04c-16.79,12.88-40.84,9.7-53.71-7.08l0,0c-12.88-16.79-9.7-40.84,7.08-53.71l319.97-245.41
		c16.79-12.88,40.84-9.7,53.71,7.08l0,0C441.14,297.71,437.97,321.75,421.18,334.63z"/>
	<path d="M742.13,518.7L422.15,273.29c-16.79-12.88-40.84-9.7-53.71,7.08l0,0c-12.88,16.79-9.7,40.84,7.08,53.71L695.5,579.5
		c16.79,12.88,40.84,9.7,53.71-7.08v0C762.09,555.63,758.92,531.58,742.13,518.7z"/>
	<path d="M224.24,476.72h-74.51c-5.83,0-10.55-4.72-10.55-10.55V343.19c0-5.83,4.72-10.55,10.55-10.55h74.51
		c5.83,0,10.55,4.72,10.55,10.55v122.98C234.79,472,230.06,476.72,224.24,476.72z"/>
</g>
<g>
	
		<ellipse transform="matrix(0.9994 -0.0354 0.0354 0.9994 -23.9435 17.3658)" class="st0" cx="478.42" cy="684.83" rx="51.71" ry="56.16"/>
	<path d="M696.32,682.82l-10.33-17.13c-1.23-2.04-3.52-3.2-5.89-3l-43.14,3.8c-6.3,0.55-10.3,7-8.01,12.89l2.09,5.36l-6.29,2.06
		l-44.36-120.07c-0.16-0.44-0.3-0.89-0.42-1.34c-5.3-19.41-25.95-35.72-44.82-36.29h-2.2v0H280.09l0.01-0.03l-18.8-0.03
		c-18.86,0.53-39.47,16.71-44.73,36.01c-0.12,0.46-0.26,0.91-0.43,1.35l-43.29,117.1l-7.18-2.35l2.09-5.36
		c2.29-5.89-1.71-12.34-8.01-12.89l-43.14-3.8c-2.38-0.21-4.66,0.95-5.89,3l-10.33,17.13c-1.76,2.92-0.39,6.72,2.83,7.84
		l48.33,16.82c1.87,0.65,3.87,0.14,5.21-1.16c0.36,0.12,0.73,0.24,1.09,0.36c0.38,0.12,0.76,0.25,1.14,0.37
		c-0.39,0.93-0.7,1.87-0.96,2.81c-8.98,25.59-23.87,122.73,49.22,170.51v19.13c0,11.04,10.12,20.06,22.49,20.06h15.66
		c12.37,0,22.49-9.03,22.49-20.06v-20.96c0-1.16,1.05-2.09,2.35-2.09h254.72c1.3,0,2.35,0.94,2.35,2.09v20.29
		c0,11.04,10.12,20.06,22.49,20.06h15.66c12.37,0,22.49-9.03,22.49-20.06v-16.64c74.62-47.91,58.91-146.76,49.91-171.61l2.1-0.69
		c1.34,1.3,3.34,1.81,5.21,1.16l48.33-16.82C696.7,689.54,698.08,685.74,696.32,682.82z M278.3,784.78c-0.7,2.3-2.5,4.69-6.78,6.99
		c-11.9,6.38-48.19,14.75-76.68,0.41c-0.04-0.02-0.08-0.04-0.12-0.06c-4.55-2.31-7.9-6.44-9.45-11.29
		c-0.01-0.02-0.01-0.05-0.02-0.07c-1.21-3.78-1.84-7.71-1.87-11.68c-0.01-1.39-0.02-2.99-0.04-4.85c-0.07-7.03,0.26-8.08,0.5-12.27
		c0.3-5.24,4.5-7.7,7.9-9.14c9.51-2.5,23.83,1.83,30.45,3.32c4.72,1.06,42.77,9.91,53.65,27.75
		C277.03,775.85,279.67,780.31,278.3,784.78z M216.41,696.99l45.18-119.09c2.67-7.05,9.43-11.71,16.97-11.71h239.3
		c7.54,0,14.29,4.66,16.97,11.71l45.65,120.44c-34.32-12.83-105.09-21.65-186.86-21.65C327.55,676.69,256.3,685.27,216.41,696.99z
		 M612.18,764.45c-0.13,12.75,0.09,13.42-1.32,17.16c-1.48,3.96-3.47,7.41-10.19,10.8c-0.52,0.26-1.04,0.5-1.56,0.74l-6.96,2.82
		c-26.81,9.16-57.41,1.78-68.15-3.97c-4.28-2.3-6.08-4.69-6.78-6.99c-1.37-4.47,1.27-8.93,2.47-10.9
		c10.89-17.84,48.94-26.69,53.65-27.75c6.62-1.49,20.94-5.82,30.45-3.32c3.4,1.44,7.6,3.9,7.9,9.14
		C611.93,756.37,612.26,757.42,612.18,764.45z M184.83,779.48"/>
</g>
</svg>
